<svg xmlns="http://www.w3.org/2000/svg" xmlns:xlink="http://www.w3.org/1999/xlink" width="1612" zoomAndPan="magnify" viewBox="0 0 1209 398.999991" height="532" preserveAspectRatio="xMidYMid meet" version="1.0"><defs><g/><clipPath id="2185548749"><path d="M 0 26.117188 L 346.5 26.117188 L 346.5 372.617188 L 0 372.617188 Z M 0 26.117188 " clip-rule="nonzero"/></clipPath></defs><g fill="#161616" fill-opacity="1"><g transform="translate(381.219364, 272.92503)"><g><path d="M 81.429688 4.566406 C 124.527344 4.566406 153.921875 -24.03125 153.921875 -70.109375 C 153.921875 -116.183594 124.527344 -144.785156 81.429688 -144.785156 C 38.332031 -144.785156 8.9375 -116.183594 8.9375 -70.109375 C 8.9375 -24.03125 38.332031 4.566406 81.429688 4.566406 Z M 81.429688 -30.785156 C 63.753906 -30.785156 53.425781 -44.089844 53.425781 -70.308594 C 53.425781 -96.125 63.753906 -109.433594 81.429688 -109.433594 C 99.105469 -109.433594 109.433594 -96.125 109.433594 -70.308594 C 109.433594 -44.089844 99.105469 -30.785156 81.429688 -30.785156 Z M 81.429688 -30.785156 "/></g></g></g><g fill="#161616" fill-opacity="1"><g transform="translate(532.359279, 272.92503)"><g><path d="M 80.039062 -115.390625 L 80.039062 -141.410156 L 60.179688 -141.410156 C 26.019531 -141.410156 19.265625 -124.527344 19.265625 -106.453125 L 19.265625 -102.085938 L 2.980469 -102.480469 L 2.980469 -77.855469 L 19.265625 -78.25 L 19.265625 0 L 59.382812 0 L 59.382812 -78.25 L 80.039062 -77.855469 L 80.039062 -102.480469 L 59.382812 -102.085938 L 59.382812 -106.652344 C 59.382812 -112.410156 61.171875 -115.390625 68.917969 -115.390625 Z M 80.039062 -115.390625 "/></g></g></g><g fill="#161616" fill-opacity="1"><g transform="translate(604.652197, 272.92503)"><g><path d="M 80.039062 -115.390625 L 80.039062 -141.410156 L 60.179688 -141.410156 C 26.019531 -141.410156 19.265625 -124.527344 19.265625 -106.453125 L 19.265625 -102.085938 L 2.980469 -102.480469 L 2.980469 -77.855469 L 19.265625 -78.25 L 19.265625 0 L 59.382812 0 L 59.382812 -78.25 L 80.039062 -77.855469 L 80.039062 -102.480469 L 59.382812 -102.085938 L 59.382812 -106.652344 C 59.382812 -112.410156 61.171875 -115.390625 68.917969 -115.390625 Z M 80.039062 -115.390625 "/></g></g></g><g fill="#161616" fill-opacity="1"><g transform="translate(676.945116, 272.92503)"><g><path d="M 72.492188 -141.410156 L 11.917969 -141.410156 L 11.917969 0 L 74.476562 0 C 121.746094 0 146.375 -29.195312 146.375 -70.703125 C 146.375 -117.773438 117.179688 -141.410156 72.492188 -141.410156 Z M 56.40625 -37.140625 L 56.40625 -104.269531 L 69.3125 -104.269531 C 90.367188 -104.269531 101.886719 -93.542969 101.886719 -70.703125 C 101.886719 -47.863281 90.367188 -37.140625 69.3125 -37.140625 Z M 56.40625 -37.140625 "/></g></g></g><g fill="#161616" fill-opacity="1"><g transform="translate(819.743569, 272.92503)"><g><path d="M 78.648438 -48.0625 C 78.648438 -37.140625 72.292969 -29.792969 63.15625 -29.792969 C 55.210938 -29.792969 50.050781 -34.953125 50.050781 -44.886719 L 50.050781 -102.480469 L 9.929688 -102.480469 L 9.929688 -35.152344 C 9.929688 -10.328125 24.429688 2.980469 48.660156 2.980469 C 62.363281 2.980469 73.085938 -2.183594 80.632812 -12.910156 L 82.023438 0 L 118.765625 0 L 118.765625 -102.480469 L 78.648438 -102.480469 Z M 78.648438 -48.0625 "/></g></g></g><g fill="#161616" fill-opacity="1"><g transform="translate(936.723053, 272.92503)"><g><path d="M 77.65625 -78.648438 L 77.65625 -102.480469 L 58.789062 -102.085938 L 58.789062 -133.464844 L 18.667969 -133.464844 L 18.667969 -102.085938 L 2.980469 -102.480469 L 2.980469 -78.648438 L 18.667969 -79.046875 L 18.667969 -35.75 C 18.667969 -8.738281 27.40625 0 54.417969 0 L 77.65625 0 L 77.65625 -29.988281 L 68.71875 -29.988281 C 62.164062 -29.988281 58.789062 -33.761719 58.789062 -41.113281 L 58.789062 -79.046875 Z M 77.65625 -78.648438 "/></g></g></g><g fill="#161616" fill-opacity="1"><g transform="translate(1010.604823, 272.92503)"><g><path d="M 65.738281 -61.371094 C 64.148438 -55.210938 62.363281 -48.0625 60.972656 -40.714844 C 59.382812 -48.0625 57.792969 -55.210938 56.007812 -61.371094 L 43.695312 -102.480469 L 0.992188 -102.480469 L 42.304688 -0.597656 L 41.308594 1.984375 C 39.523438 6.953125 36.34375 8.9375 29.988281 8.9375 L 15.886719 8.9375 L 15.886719 40.515625 L 39.324219 40.515625 C 60.574219 40.515625 71.699219 32.96875 78.25 14.300781 L 118.964844 -102.480469 L 77.058594 -102.480469 Z M 65.738281 -61.371094 "/></g></g></g><path fill="#161616" d="M 80.535156 28.148438 L 265.964844 28.148438 C 267.25 28.148438 268.535156 28.179688 269.816406 28.242188 C 271.101562 28.304688 272.382812 28.398438 273.660156 28.527344 C 274.9375 28.652344 276.214844 28.808594 277.484375 28.996094 C 278.753906 29.1875 280.019531 29.40625 281.28125 29.65625 C 282.542969 29.90625 283.792969 30.1875 285.039062 30.5 C 286.285156 30.8125 287.523438 31.15625 288.753906 31.527344 C 289.984375 31.902344 291.203125 32.304688 292.414062 32.738281 C 293.621094 33.167969 294.820312 33.632812 296.007812 34.125 C 297.195312 34.613281 298.367188 35.136719 299.53125 35.683594 C 300.691406 36.234375 301.839844 36.8125 302.972656 37.417969 C 304.105469 38.023438 305.222656 38.65625 306.324219 39.316406 C 307.425781 39.976562 308.511719 40.664062 309.582031 41.378906 C 310.648438 42.089844 311.699219 42.832031 312.730469 43.597656 C 313.761719 44.363281 314.773438 45.152344 315.769531 45.96875 C 316.761719 46.78125 317.734375 47.621094 318.6875 48.484375 C 319.636719 49.347656 320.566406 50.230469 321.476562 51.140625 C 322.386719 52.050781 323.269531 52.980469 324.132812 53.929688 C 324.996094 54.882812 325.835938 55.855469 326.648438 56.847656 C 327.464844 57.84375 328.253906 58.855469 329.019531 59.886719 C 329.785156 60.917969 330.527344 61.96875 331.238281 63.035156 C 331.953125 64.105469 332.640625 65.191406 333.300781 66.292969 C 333.960938 67.394531 334.59375 68.511719 335.199219 69.644531 C 335.804688 70.777344 336.382812 71.925781 336.933594 73.085938 C 337.480469 74.25 338.003906 75.421875 338.492188 76.609375 C 338.984375 77.796875 339.449219 78.996094 339.878906 80.203125 C 340.3125 81.414062 340.714844 82.632812 341.089844 83.863281 C 341.460938 85.09375 341.804688 86.332031 342.117188 87.578125 C 342.429688 88.824219 342.710938 90.074219 342.960938 91.335938 C 343.210938 92.597656 343.429688 93.863281 343.621094 95.132812 C 343.808594 96.402344 343.964844 97.679688 344.089844 98.957031 C 344.21875 100.234375 344.3125 101.515625 344.375 102.800781 C 344.4375 104.082031 344.46875 105.367188 344.46875 106.652344 L 344.46875 292.082031 C 344.46875 293.367188 344.4375 294.652344 344.375 295.933594 C 344.3125 297.21875 344.21875 298.5 344.089844 299.777344 C 343.964844 301.054688 343.808594 302.332031 343.621094 303.601562 C 343.429688 304.871094 343.210938 306.136719 342.960938 307.398438 C 342.710938 308.660156 342.429688 309.910156 342.117188 311.15625 C 341.804688 312.402344 341.460938 313.640625 341.089844 314.871094 C 340.714844 316.101562 340.3125 317.320312 339.878906 318.53125 C 339.449219 319.738281 338.984375 320.9375 338.492188 322.125 C 338.003906 323.3125 337.480469 324.488281 336.933594 325.648438 C 336.382812 326.808594 335.804688 327.957031 335.199219 329.089844 C 334.59375 330.222656 333.960938 331.339844 333.300781 332.441406 C 332.640625 333.542969 331.953125 334.628906 331.238281 335.699219 C 330.527344 336.765625 329.785156 337.816406 329.019531 338.847656 C 328.253906 339.878906 327.464844 340.890625 326.648438 341.886719 C 325.835938 342.878906 324.996094 343.851562 324.132812 344.804688 C 323.269531 345.753906 322.386719 346.683594 321.476562 347.59375 C 320.566406 348.503906 319.636719 349.386719 318.6875 350.25 C 317.734375 351.113281 316.761719 351.953125 315.769531 352.765625 C 314.773438 353.582031 313.761719 354.371094 312.730469 355.136719 C 311.699219 355.902344 310.648438 356.644531 309.582031 357.355469 C 308.511719 358.070312 307.425781 358.757812 306.324219 359.417969 C 305.222656 360.078125 304.105469 360.710938 302.972656 361.316406 C 301.839844 361.921875 300.691406 362.5 299.53125 363.050781 C 298.367188 363.597656 297.195312 364.121094 296.007812 364.609375 C 294.820312 365.101562 293.621094 365.566406 292.414062 365.996094 C 291.203125 366.429688 289.984375 366.832031 288.753906 367.207031 C 287.523438 367.578125 286.285156 367.921875 285.039062 368.234375 C 283.792969 368.546875 282.542969 368.828125 281.28125 369.078125 C 280.019531 369.328125 278.753906 369.546875 277.484375 369.738281 C 276.214844 369.925781 274.9375 370.082031 273.660156 370.207031 C 272.382812 370.335938 271.101562 370.429688 269.816406 370.492188 C 268.535156 370.554688 267.25 370.585938 265.964844 370.585938 L 80.535156 370.585938 C 79.25 370.585938 77.964844 370.554688 76.683594 370.492188 C 75.398438 370.429688 74.117188 370.335938 72.839844 370.207031 C 71.5625 370.082031 70.285156 369.925781 69.015625 369.738281 C 67.746094 369.546875 66.480469 369.328125 65.21875 369.078125 C 63.957031 368.828125 62.707031 368.546875 61.460938 368.234375 C 60.214844 367.921875 58.976562 367.578125 57.746094 367.207031 C 56.515625 366.832031 55.296875 366.429688 54.085938 365.996094 C 52.878906 365.566406 51.679688 365.101562 50.492188 364.609375 C 49.304688 364.121094 48.132812 363.597656 46.96875 363.050781 C 45.808594 362.5 44.660156 361.921875 43.527344 361.316406 C 42.394531 360.710938 41.277344 360.078125 40.175781 359.417969 C 39.074219 358.757812 37.988281 358.070312 36.917969 357.355469 C 35.851562 356.644531 34.800781 355.902344 33.769531 355.136719 C 32.738281 354.371094 31.726562 353.582031 30.730469 352.765625 C 29.738281 351.953125 28.765625 351.113281 27.8125 350.25 C 26.863281 349.386719 25.933594 348.503906 25.023438 347.59375 C 24.113281 346.683594 23.230469 345.753906 22.367188 344.804688 C 21.503906 343.851562 20.664062 342.878906 19.851562 341.886719 C 19.035156 340.890625 18.246094 339.878906 17.480469 338.847656 C 16.714844 337.816406 15.972656 336.765625 15.261719 335.699219 C 14.546875 334.628906 13.859375 333.542969 13.199219 332.441406 C 12.539062 331.339844 11.90625 330.222656 11.300781 329.089844 C 10.695312 327.957031 10.117188 326.808594 9.566406 325.648438 C 9.019531 324.488281 8.496094 323.3125 8.007812 322.125 C 7.515625 320.9375 7.050781 319.738281 6.621094 318.53125 C 6.1875 317.320312 5.785156 316.101562 5.410156 314.871094 C 5.039062 313.640625 4.695312 312.402344 4.382812 311.15625 C 4.070312 309.910156 3.789062 308.660156 3.539062 307.398438 C 3.289062 306.136719 3.070312 304.871094 2.878906 303.601562 C 2.691406 302.332031 2.535156 301.054688 2.410156 299.777344 C 2.28125 298.5 2.1875 297.21875 2.125 295.933594 C 2.0625 294.652344 2.03125 293.367188 2.03125 292.082031 L 2.03125 106.652344 C 2.03125 105.367188 2.0625 104.082031 2.125 102.800781 C 2.1875 101.515625 2.28125 100.234375 2.410156 98.957031 C 2.535156 97.679688 2.691406 96.402344 2.878906 95.132812 C 3.070312 93.863281 3.289062 92.597656 3.539062 91.335938 C 3.789062 90.074219 4.070312 88.824219 4.382812 87.578125 C 4.695312 86.332031 5.039062 85.09375 5.410156 83.863281 C 5.785156 82.632812 6.1875 81.414062 6.621094 80.203125 C 7.050781 78.996094 7.515625 77.796875 8.007812 76.609375 C 8.496094 75.421875 9.019531 74.25 9.566406 73.085938 C 10.117188 71.925781 10.695312 70.777344 11.300781 69.644531 C 11.90625 68.511719 12.539062 67.394531 13.199219 66.292969 C 13.859375 65.191406 14.546875 64.105469 15.261719 63.035156 C 15.972656 61.96875 16.714844 60.917969 17.480469 59.886719 C 18.246094 58.855469 19.035156 57.84375 19.851562 56.847656 C 20.664062 55.855469 21.503906 54.882812 22.367188 53.929688 C 23.230469 52.980469 24.113281 52.050781 25.023438 51.140625 C 25.933594 50.230469 26.863281 49.347656 27.8125 48.484375 C 28.765625 47.621094 29.738281 46.78125 30.730469 45.96875 C 31.726562 45.152344 32.738281 44.363281 33.769531 43.597656 C 34.800781 42.832031 35.851562 42.089844 36.917969 41.378906 C 37.988281 40.664062 39.074219 39.976562 40.175781 39.316406 C 41.277344 38.65625 42.394531 38.023438 43.527344 37.417969 C 44.660156 36.8125 45.808594 36.234375 46.96875 35.683594 C 48.132812 35.136719 49.304688 34.613281 50.492188 34.125 C 51.679688 33.632812 52.878906 33.167969 54.085938 32.738281 C 55.296875 32.304688 56.515625 31.902344 57.746094 31.527344 C 58.976562 31.15625 60.214844 30.8125 61.460938 30.5 C 62.707031 30.1875 63.957031 29.90625 65.21875 29.65625 C 66.480469 29.40625 67.746094 29.1875 69.015625 28.996094 C 70.285156 28.808594 71.5625 28.652344 72.839844 28.527344 C 74.117188 28.398438 75.398438 28.304688 76.683594 28.242188 C 77.964844 28.179688 79.25 28.148438 80.535156 28.148438 Z M 80.535156 28.148438 " fill-opacity="1" fill-rule="nonzero"/><g clip-path="url(#2185548749)"><path stroke-linecap="butt" transform="matrix(1.353516, 0, 0, 1.353516, 0.0000136353, 26.117258)" fill="none" stroke-linejoin="miter" d="M 59.500716 1.50067 L 196.499282 1.50067 C 197.448777 1.50067 198.398272 1.523758 199.344881 1.569934 C 200.294376 1.61611 201.240985 1.685374 202.184708 1.780612 C 203.128431 1.872964 204.072154 1.988404 205.010105 2.126932 C 205.948056 2.268346 206.883121 2.429963 207.8153 2.614667 C 208.747479 2.799371 209.671 3.007163 210.591635 3.238043 C 211.51227 3.468924 212.427133 3.722892 213.336224 3.997062 C 214.245315 4.274119 215.145748 4.571377 216.040409 4.891723 C 216.932184 5.209184 217.818187 5.552618 218.695532 5.916254 C 219.572877 6.277005 220.438678 6.663729 221.298707 7.06777 C 222.15585 7.474696 223.004335 7.901824 223.841276 8.349155 C 224.678217 8.796485 225.503613 9.264018 226.317466 9.751752 C 227.131319 10.239487 227.933628 10.747423 228.724393 11.275562 C 229.512272 11.800815 230.288607 12.349155 231.050511 12.914812 C 231.812416 13.480468 232.559891 14.063441 233.295822 14.666616 C 234.028867 15.266904 234.747481 15.887395 235.451666 16.525202 C 236.152965 17.163008 236.839834 17.815245 237.512272 18.487684 C 238.184711 19.160122 238.836948 19.846991 239.474754 20.54829 C 240.112561 21.252475 240.733052 21.971089 241.33334 22.704134 C 241.936515 23.440065 242.519488 24.18754 243.085144 24.949445 C 243.650801 25.71135 244.199141 26.487684 244.724394 27.275563 C 245.252533 28.066328 245.760469 28.868637 246.248204 29.68249 C 246.735938 30.496343 247.203471 31.32174 247.650801 32.15868 C 248.098132 32.995621 248.52526 33.844106 248.932187 34.701249 C 249.336227 35.561278 249.722951 36.427079 250.083702 37.304424 C 250.447338 38.181769 250.790772 39.067772 251.108233 39.959547 C 251.428579 40.854208 251.725837 41.754641 252.002894 42.663732 C 252.277064 43.572823 252.531032 44.487686 252.761913 45.408321 C 252.992793 46.328956 253.200585 47.252477 253.385289 48.184656 C 253.569993 49.116835 253.73161 50.0519 253.873024 50.989851 C 254.011552 51.927802 254.126992 52.871525 254.219344 53.815248 C 254.314582 54.758971 254.383846 55.70558 254.430022 56.655075 C 254.476198 57.601684 254.499286 58.551179 254.499286 59.500674 L 254.499286 196.49924 C 254.499286 197.448735 254.476198 198.39823 254.430022 199.344839 C 254.383846 200.294334 254.314582 201.240943 254.219344 202.184666 C 254.126992 203.128389 254.011552 204.072113 253.873024 205.010064 C 253.73161 205.948015 253.569993 206.88308 253.385289 207.815259 C 253.200585 208.747438 252.992793 209.670959 252.761913 210.591593 C 252.531032 211.512228 252.277064 212.427091 252.002894 213.336182 C 251.725837 214.245273 251.428579 215.145706 251.108233 216.040367 C 250.790772 216.932142 250.447338 217.818145 250.083702 218.69549 C 249.722951 219.572835 249.336227 220.441522 248.932187 221.298665 C 248.52526 222.155808 248.098132 223.004293 247.650801 223.841234 C 247.203471 224.678175 246.735938 225.503571 246.248204 226.317424 C 245.760469 227.131277 245.252533 227.933586 244.724394 228.724351 C 244.199141 229.51223 243.650801 230.288565 243.085144 231.050469 C 242.519488 231.812374 241.936515 232.559849 241.33334 233.29578 C 240.733052 234.028825 240.112561 234.747439 239.474754 235.451624 C 238.836948 236.152923 238.184711 236.839792 237.512272 237.51223 C 236.839834 238.184669 236.152965 238.836906 235.451666 239.474712 C 234.747481 240.112519 234.028867 240.73301 233.295822 241.333298 C 232.559891 241.936473 231.812416 242.519446 231.050511 243.085102 C 230.288607 243.650759 229.512272 244.199099 228.724393 244.724352 C 227.933628 245.252491 227.131319 245.760427 226.317466 246.248162 C 225.503613 246.735896 224.678217 247.203429 223.841276 247.650759 C 223.004335 248.09809 222.15585 248.525218 221.298707 248.932145 C 220.438678 249.336185 219.572877 249.722909 218.695532 250.08366 C 217.818187 250.447296 216.932184 250.790731 216.040409 251.108191 C 215.145748 251.428537 214.245315 251.725796 213.336224 252.002852 C 212.427133 252.277022 211.51227 252.53099 210.591635 252.761871 C 209.671 252.992751 208.747479 253.200543 207.8153 253.385247 C 206.883121 253.569952 205.948056 253.731568 205.010105 253.872982 C 204.072154 254.01151 203.128431 254.12695 202.184708 254.219302 C 201.240985 254.31454 200.294376 254.383804 199.344881 254.42998 C 198.398272 254.476156 197.448777 254.499245 196.499282 254.499245 L 59.500716 254.499245 C 58.551221 254.499245 57.601726 254.476156 56.655117 254.42998 C 55.705622 254.383804 54.759013 254.31454 53.81529 254.219302 C 52.871567 254.12695 51.927844 254.01151 50.989893 253.872982 C 50.051942 253.731568 49.116877 253.569952 48.184698 253.385247 C 47.252519 253.200543 46.328998 252.992751 45.408363 252.761871 C 44.487728 252.53099 43.572865 252.277022 42.663774 252.002852 C 41.754683 251.725796 40.85425 251.428537 39.959589 251.108191 C 39.067814 250.790731 38.181811 250.447296 37.304466 250.08366 C 36.427121 249.722909 35.56132 249.336185 34.701291 248.932145 C 33.844148 248.525218 32.995663 248.09809 32.158722 247.650759 C 31.321781 247.203429 30.496385 246.735896 29.682532 246.248162 C 28.868679 245.760427 28.06637 245.252491 27.275605 244.724352 C 26.487726 244.199099 25.711391 243.650759 24.949487 243.085102 C 24.187582 242.519446 23.440107 241.936473 22.704176 241.333298 C 21.971131 240.73301 21.252517 240.112519 20.548332 239.474712 C 19.847033 238.836906 19.160164 238.184669 18.487726 237.51223 C 17.815287 236.839792 17.16305 236.152923 16.525244 235.451624 C 15.887437 234.747439 15.266946 234.028825 14.666658 233.29578 C 14.063483 232.559849 13.48051 231.812374 12.914854 231.050469 C 12.349197 230.288565 11.800857 229.51223 11.275604 228.724351 C 10.747465 227.933586 10.239529 227.131277 9.751794 226.317424 C 9.26406 225.503571 8.796527 224.678175 8.349197 223.841234 C 7.901866 223.004293 7.474738 222.155808 7.067811 221.298665 C 6.663771 220.441522 6.277047 219.572835 5.916296 218.69549 C 5.55266 217.818145 5.209226 216.932142 4.891765 216.040367 C 4.571419 215.145706 4.274161 214.245273 3.997104 213.336182 C 3.722934 212.427091 3.468966 211.512228 3.238085 210.591593 C 3.007205 209.670959 2.799413 208.747438 2.614709 207.815259 C 2.430005 206.88308 2.268388 205.948015 2.126974 205.010064 C 1.988446 204.072113 1.873006 203.128389 1.780654 202.184666 C 1.685416 201.240943 1.616152 200.294334 1.569976 199.344839 C 1.5238 198.39823 1.500712 197.448735 1.500712 196.49924 L 1.500712 59.500674 C 1.500712 58.551179 1.5238 57.601684 1.569976 56.655075 C 1.616152 55.70558 1.685416 54.758971 1.780654 53.815248 C 1.873006 52.871525 1.988446 51.927802 2.126974 50.989851 C 2.268388 50.0519 2.430005 49.116835 2.614709 48.184656 C 2.799413 47.252477 3.007205 46.328956 3.238085 45.408321 C 3.468966 44.487686 3.722934 43.572823 3.997104 42.663732 C 4.274161 41.754641 4.571419 40.854208 4.891765 39.959547 C 5.209226 39.067772 5.55266 38.181769 5.916296 37.304424 C 6.277047 36.427079 6.663771 35.561278 7.067811 34.701249 C 7.474738 33.844106 7.901866 32.995621 8.349197 32.15868 C 8.796527 31.32174 9.26406 30.496343 9.751794 29.68249 C 10.239529 28.868637 10.747465 28.066328 11.275604 27.275563 C 11.800857 26.487684 12.349197 25.71135 12.914854 24.949445 C 13.48051 24.18754 14.063483 23.440065 14.666658 22.704134 C 15.266946 21.971089 15.887437 21.252475 16.525244 20.54829 C 17.16305 19.846991 17.815287 19.160122 18.487726 18.487684 C 19.160164 17.815245 19.847033 17.163008 20.548332 16.525202 C 21.252517 15.887395 21.971131 15.266904 22.704176 14.666616 C 23.440107 14.063441 24.187582 13.480468 24.949487 12.914812 C 25.711391 12.349155 26.487726 11.800815 27.275605 11.275562 C 28.06637 10.747423 28.868679 10.239487 29.682532 9.751752 C 30.496385 9.264018 31.321781 8.796485 32.158722 8.349155 C 32.995663 7.901824 33.844148 7.474696 34.701291 7.06777 C 35.56132 6.663729 36.427121 6.277005 37.304466 5.916254 C 38.181811 5.552618 39.067814 5.209184 39.959589 4.891723 C 40.85425 4.571377 41.754683 4.274119 42.663774 3.997062 C 43.572865 3.722892 44.487728 3.468924 45.408363 3.238043 C 46.328998 3.007163 47.252519 2.799371 48.184698 2.614667 C 49.116877 2.429963 50.051942 2.268346 50.989893 2.126932 C 51.927844 1.988404 52.871567 1.872964 53.81529 1.780612 C 54.759013 1.685374 55.705622 1.61611 56.655117 1.569934 C 57.601726 1.523758 58.551221 1.50067 59.500716 1.50067 Z M 59.500716 1.50067 " stroke="#fffdfb" stroke-width="1.5" stroke-opacity="0.1" stroke-miterlimit="4"/></g><path fill="#f43f5e" d="M 121.816406 120.863281 C 122.746094 120.863281 123.675781 120.910156 124.601562 121 C 125.527344 121.089844 126.449219 121.226562 127.363281 121.410156 C 128.273438 121.589844 129.175781 121.816406 130.066406 122.085938 C 130.957031 122.359375 131.832031 122.671875 132.695312 123.027344 C 133.554688 123.382812 134.394531 123.78125 135.214844 124.21875 C 136.035156 124.660156 136.832031 125.136719 137.609375 125.652344 C 138.382812 126.171875 139.128906 126.726562 139.847656 127.316406 C 140.566406 127.90625 141.257812 128.53125 141.914062 129.1875 C 142.574219 129.847656 143.199219 130.535156 143.789062 131.253906 C 144.378906 131.976562 144.933594 132.722656 145.449219 133.496094 C 145.96875 134.269531 146.445312 135.066406 146.882812 135.886719 C 147.324219 136.710938 147.71875 137.550781 148.078125 138.410156 C 148.433594 139.269531 148.746094 140.144531 149.015625 141.035156 C 149.285156 141.925781 149.511719 142.828125 149.695312 143.742188 C 149.875 144.65625 150.011719 145.574219 150.101562 146.5 C 150.195312 147.425781 150.242188 148.355469 150.242188 149.289062 L 150.242188 249.449219 C 150.242188 250.378906 150.195312 251.308594 150.101562 252.234375 C 150.011719 253.160156 149.875 254.078125 149.695312 254.992188 C 149.511719 255.90625 149.285156 256.808594 149.015625 257.699219 C 148.746094 258.589844 148.433594 259.464844 148.078125 260.324219 C 147.71875 261.183594 147.324219 262.023438 146.882812 262.847656 C 146.445312 263.667969 145.96875 264.464844 145.449219 265.238281 C 144.933594 266.011719 144.378906 266.757812 143.789062 267.480469 C 143.199219 268.199219 142.574219 268.886719 141.914062 269.546875 C 141.257812 270.203125 140.566406 270.828125 139.847656 271.417969 C 139.128906 272.011719 138.382812 272.5625 137.609375 273.082031 C 136.832031 273.597656 136.035156 274.074219 135.214844 274.515625 C 134.394531 274.953125 133.554688 275.351562 132.695312 275.707031 C 131.832031 276.0625 130.957031 276.378906 130.066406 276.648438 C 129.175781 276.917969 128.273438 277.144531 127.363281 277.324219 C 126.449219 277.507812 125.527344 277.644531 124.601562 277.734375 C 123.675781 277.824219 122.746094 277.871094 121.816406 277.871094 C 120.886719 277.871094 119.957031 277.824219 119.03125 277.734375 C 118.105469 277.644531 117.183594 277.507812 116.269531 277.324219 C 115.359375 277.144531 114.457031 276.917969 113.566406 276.648438 C 112.675781 276.378906 111.800781 276.0625 110.9375 275.707031 C 110.078125 275.351562 109.238281 274.953125 108.417969 274.515625 C 107.597656 274.074219 106.800781 273.597656 106.023438 273.082031 C 105.25 272.5625 104.503906 272.011719 103.785156 271.417969 C 103.066406 270.828125 102.375 270.203125 101.71875 269.546875 C 101.058594 268.886719 100.433594 268.199219 99.84375 267.480469 C 99.253906 266.757812 98.699219 266.011719 98.183594 265.238281 C 97.664062 264.464844 97.1875 263.667969 96.75 262.847656 C 96.308594 262.023438 95.914062 261.183594 95.554688 260.324219 C 95.199219 259.464844 94.886719 258.589844 94.617188 257.699219 C 94.347656 256.808594 94.121094 255.90625 93.9375 254.992188 C 93.757812 254.078125 93.621094 253.160156 93.53125 252.234375 C 93.4375 251.308594 93.394531 250.378906 93.394531 249.449219 L 93.394531 149.289062 C 93.394531 148.355469 93.4375 147.425781 93.53125 146.5 C 93.621094 145.574219 93.757812 144.65625 93.9375 143.742188 C 94.121094 142.828125 94.347656 141.925781 94.617188 141.035156 C 94.886719 140.144531 95.199219 139.269531 95.554688 138.410156 C 95.914062 137.550781 96.308594 136.710938 96.75 135.886719 C 97.1875 135.066406 97.664062 134.269531 98.183594 133.496094 C 98.699219 132.722656 99.253906 131.976562 99.84375 131.253906 C 100.433594 130.535156 101.058594 129.847656 101.71875 129.1875 C 102.375 128.53125 103.066406 127.90625 103.785156 127.316406 C 104.503906 126.726562 105.25 126.171875 106.023438 125.652344 C 106.800781 125.136719 107.597656 124.660156 108.417969 124.21875 C 109.238281 123.78125 110.078125 123.382812 110.9375 123.027344 C 111.800781 122.671875 112.675781 122.359375 113.566406 122.085938 C 114.457031 121.816406 115.359375 121.589844 116.269531 121.410156 C 117.183594 121.226562 118.105469 121.089844 119.03125 121 C 119.957031 120.910156 120.886719 120.863281 121.816406 120.863281 Z M 121.816406 120.863281 " fill-opacity="1" fill-rule="nonzero"/><path fill="#a78bfa" d="M 224.683594 120.863281 C 225.613281 120.863281 226.542969 120.910156 227.46875 121 C 228.394531 121.089844 229.316406 121.226562 230.230469 121.410156 C 231.140625 121.589844 232.042969 121.816406 232.933594 122.085938 C 233.824219 122.359375 234.699219 122.671875 235.5625 123.027344 C 236.421875 123.382812 237.261719 123.78125 238.082031 124.21875 C 238.902344 124.660156 239.699219 125.136719 240.476562 125.652344 C 241.25 126.171875 241.996094 126.726562 242.714844 127.316406 C 243.433594 127.90625 244.125 128.53125 244.78125 129.1875 C 245.441406 129.847656 246.066406 130.535156 246.65625 131.253906 C 247.246094 131.976562 247.800781 132.722656 248.316406 133.496094 C 248.835938 134.269531 249.3125 135.066406 249.75 135.886719 C 250.191406 136.710938 250.585938 137.550781 250.945312 138.410156 C 251.300781 139.269531 251.613281 140.144531 251.882812 141.035156 C 252.152344 141.925781 252.378906 142.828125 252.5625 143.742188 C 252.742188 144.65625 252.878906 145.574219 252.96875 146.5 C 253.0625 147.425781 253.109375 148.355469 253.105469 149.289062 L 253.105469 249.449219 C 253.109375 250.378906 253.0625 251.308594 252.96875 252.234375 C 252.878906 253.160156 252.742188 254.078125 252.5625 254.992188 C 252.378906 255.90625 252.152344 256.808594 251.882812 257.699219 C 251.613281 258.589844 251.300781 259.464844 250.945312 260.324219 C 250.585938 261.183594 250.191406 262.023438 249.75 262.847656 C 249.3125 263.667969 248.835938 264.464844 248.316406 265.238281 C 247.800781 266.011719 247.246094 266.757812 246.65625 267.480469 C 246.066406 268.199219 245.441406 268.886719 244.78125 269.546875 C 244.125 270.203125 243.433594 270.828125 242.714844 271.417969 C 241.996094 272.011719 241.25 272.5625 240.476562 273.082031 C 239.699219 273.597656 238.902344 274.074219 238.082031 274.515625 C 237.261719 274.953125 236.421875 275.351562 235.5625 275.707031 C 234.699219 276.0625 233.824219 276.378906 232.933594 276.648438 C 232.042969 276.917969 231.140625 277.144531 230.230469 277.324219 C 229.316406 277.507812 228.394531 277.644531 227.46875 277.734375 C 226.542969 277.824219 225.613281 277.871094 224.683594 277.871094 C 223.753906 277.871094 222.824219 277.824219 221.898438 277.734375 C 220.972656 277.644531 220.050781 277.507812 219.136719 277.324219 C 218.226562 277.144531 217.324219 276.917969 216.433594 276.648438 C 215.542969 276.378906 214.667969 276.0625 213.804688 275.707031 C 212.945312 275.351562 212.105469 274.953125 211.285156 274.515625 C 210.464844 274.074219 209.667969 273.597656 208.890625 273.082031 C 208.117188 272.5625 207.371094 272.011719 206.652344 271.417969 C 205.933594 270.828125 205.242188 270.203125 204.585938 269.546875 C 203.925781 268.886719 203.300781 268.199219 202.710938 267.480469 C 202.121094 266.757812 201.566406 266.011719 201.050781 265.238281 C 200.53125 264.464844 200.054688 263.667969 199.617188 262.847656 C 199.175781 262.023438 198.78125 261.183594 198.421875 260.324219 C 198.066406 259.464844 197.753906 258.589844 197.484375 257.699219 C 197.214844 256.808594 196.988281 255.90625 196.804688 254.992188 C 196.625 254.078125 196.488281 253.160156 196.398438 252.234375 C 196.304688 251.308594 196.261719 250.378906 196.257812 249.449219 L 196.257812 149.289062 C 196.261719 148.355469 196.304688 147.425781 196.398438 146.5 C 196.488281 145.574219 196.625 144.65625 196.804688 143.742188 C 196.988281 142.828125 197.214844 141.925781 197.484375 141.035156 C 197.753906 140.144531 198.066406 139.269531 198.421875 138.410156 C 198.78125 137.550781 199.175781 136.710938 199.617188 135.886719 C 200.054688 135.066406 200.53125 134.269531 201.050781 133.496094 C 201.566406 132.722656 202.121094 131.976562 202.710938 131.253906 C 203.300781 130.535156 203.925781 129.847656 204.585938 129.1875 C 205.242188 128.53125 205.933594 127.90625 206.652344 127.316406 C 207.371094 126.726562 208.117188 126.171875 208.890625 125.652344 C 209.667969 125.136719 210.464844 124.660156 211.285156 124.21875 C 212.105469 123.78125 212.945312 123.382812 213.804688 123.027344 C 214.667969 122.671875 215.542969 122.359375 216.433594 122.085938 C 217.324219 121.816406 218.226562 121.589844 219.136719 121.410156 C 220.050781 121.226562 220.972656 121.089844 221.898438 121 C 222.824219 120.910156 223.753906 120.863281 224.683594 120.863281 Z M 224.683594 120.863281 " fill-opacity="1" fill-rule="nonzero"/></svg>